<svg xmlns="http://www.w3.org/2000/svg" viewBox="0 0 680 200" width="680" height="200" font-family="system-ui, -apple-system, Segoe UI, Roboto, sans-serif">
<line x1="46" y1="178.0" x2="308" y2="178.0" stroke="#94a3b8" stroke-width="1" opacity="0.55"/>
<text x="38.0" y="182.0" text-anchor="end" font-size="11" font-weight="400" fill="#94a3b8">0</text>
<line x1="46" y1="103.0" x2="308" y2="103.0" stroke="#94a3b8" stroke-width="1" opacity="0.22"/>
<text x="38.0" y="107.0" text-anchor="end" font-size="11" font-weight="400" fill="#94a3b8">50</text>
<line x1="46" y1="28.0" x2="308" y2="28.0" stroke="#94a3b8" stroke-width="1" opacity="0.22"/>
<text x="38.0" y="32.0" text-anchor="end" font-size="11" font-weight="400" fill="#94a3b8">100</text>
<line x1="46" y1="28" x2="46" y2="178" stroke="#94a3b8" stroke-width="1" opacity="0.55"/>
<polyline points="46.0,178.0 47.1,153.0 48.2,128.0 49.3,103.0 50.4,78.0 51.5,53.0 52.5,28.0 53.6,53.0 54.7,78.0 55.8,103.0 56.9,128.0 58.0,153.0 59.1,178.0 60.2,153.0 61.3,128.0 62.4,103.0 63.5,78.0 64.6,53.0 65.7,28.0 66.7,53.0 67.8,78.0 68.9,103.0 70.0,128.0 71.1,153.0 72.2,178.0 73.3,153.0 74.4,128.0 75.5,103.0 76.6,78.0 77.7,53.0 78.8,28.0 79.8,53.0 80.9,78.0 82.0,103.0 83.1,128.0 84.2,153.0 85.3,178.0 86.4,153.0 87.5,128.0 88.6,103.0 89.7,78.0 90.8,53.0 91.8,28.0 92.9,53.0 94.0,78.0 95.1,103.0 96.2,128.0 97.3,153.0 98.4,178.0 99.5,153.0 100.6,128.0 101.7,103.0 102.8,78.0 103.9,53.0 105.0,28.0 106.0,53.0 107.1,78.0 108.2,103.0 109.3,128.0 110.4,153.0 111.5,178.0 112.6,153.0 113.7,128.0 114.8,103.0 115.9,78.0 117.0,53.0 118.1,28.0 119.1,53.0 120.2,78.0 121.3,103.0 122.4,128.0 123.5,153.0 124.6,178.0 125.7,153.0 126.8,128.0 127.9,103.0 129.0,78.0 130.1,53.0 131.2,28.0 132.2,53.0 133.3,78.0 134.4,103.0 135.5,128.0 136.6,153.0 137.7,178.0 138.8,153.0 139.9,128.0 141.0,103.0 142.1,78.0 143.2,53.0 144.3,28.0 145.3,53.0 146.4,78.0 147.5,103.0 148.6,128.0 149.7,153.0 150.8,178.0 151.9,153.0 153.0,128.0 154.1,103.0 155.2,78.0 156.3,53.0 157.3,28.0 158.4,53.0 159.5,78.0 160.6,103.0 161.7,128.0 162.8,153.0 163.9,178.0 165.0,153.0 166.1,128.0 167.2,103.0 168.3,78.0 169.4,53.0 170.4,28.0 171.5,53.0 172.6,78.0 173.7,103.0 174.8,128.0 175.9,153.0 177.0,178.0 178.1,153.0 179.2,128.0 180.3,103.0 181.4,78.0 182.5,53.0 183.6,28.0 184.6,53.0 185.7,78.0 186.8,103.0 187.9,128.0 189.0,153.0 190.1,178.0 191.2,153.0 192.3,128.0 193.4,103.0 194.5,78.0 195.6,53.0 196.6,28.0 197.7,53.0 198.8,78.0 199.9,103.0 201.0,128.0 202.1,153.0 203.2,178.0 204.3,153.0 205.4,128.0 206.5,103.0 207.6,78.0 208.7,53.0 209.8,28.0 210.8,53.0 211.9,78.0 213.0,103.0 214.1,128.0 215.2,153.0 216.3,178.0 217.4,153.0 218.5,128.0 219.6,103.0 220.7,78.0 221.8,53.0 222.9,28.0 223.9,53.0 225.0,78.0 226.1,103.0 227.2,128.0 228.3,153.0 229.4,178.0 230.5,153.0 231.6,128.0 232.7,103.0 233.8,78.0 234.9,53.0 235.9,28.0 237.0,53.0 238.1,78.0 239.2,103.0 240.3,128.0 241.4,153.0 242.5,178.0 243.6,153.0 244.7,128.0 245.8,103.0 246.9,78.0 248.0,53.0 249.1,28.0 250.1,53.0 251.2,78.0 252.3,103.0 253.4,128.0 254.5,153.0 255.6,178.0 256.7,153.0 257.8,128.0 258.9,103.0 260.0,78.0 261.1,53.0 262.1,28.0 263.2,53.0 264.3,78.0 265.4,103.0 266.5,128.0 267.6,153.0 268.7,178.0 269.8,153.0 270.9,128.0 272.0,103.0 273.1,78.0 274.2,53.0 275.3,28.0 276.3,53.0 277.4,78.0 278.5,103.0 279.6,128.0 280.7,153.0 281.8,178.0 282.9,153.0 284.0,128.0 285.1,103.0 286.2,78.0 287.3,53.0 288.4,28.0 289.4,53.0 290.5,78.0 291.6,103.0 292.7,128.0 293.8,153.0 294.9,178.0 296.0,153.0 297.1,128.0 298.2,103.0 299.3,78.0 300.4,53.0 301.4,28.0 302.5,53.0 303.6,78.0 304.7,103.0 305.8,128.0 306.9,153.0 308.0,178.0" fill="none" stroke="#e0662b" stroke-width="1" stroke-linejoin="round"/>
<circle cx="46.0" cy="178.0" r="1.6" fill="#2f9e63" opacity="0.85"/><circle cx="46.9" cy="158.5" r="1.6" fill="#2f9e63" opacity="0.85"/><circle cx="47.8" cy="137.5" r="1.6" fill="#2f9e63" opacity="0.85"/><circle cx="48.6" cy="118.0" r="1.6" fill="#2f9e63" opacity="0.85"/><circle cx="49.5" cy="97.0" r="1.6" fill="#2f9e63" opacity="0.85"/><circle cx="50.4" cy="77.5" r="1.6" fill="#2f9e63" opacity="0.85"/><circle cx="51.3" cy="58.0" r="1.6" fill="#2f9e63" opacity="0.85"/><circle cx="52.1" cy="38.5" r="1.6" fill="#2f9e63" opacity="0.85"/><circle cx="53.0" cy="38.5" r="1.6" fill="#2f9e63" opacity="0.85"/><circle cx="53.9" cy="58.0" r="1.6" fill="#2f9e63" opacity="0.85"/><circle cx="54.8" cy="79.0" r="1.6" fill="#2f9e63" opacity="0.85"/><circle cx="55.6" cy="98.5" r="1.6" fill="#2f9e63" opacity="0.85"/><circle cx="56.5" cy="119.5" r="1.6" fill="#2f9e63" opacity="0.85"/><circle cx="57.4" cy="139.0" r="1.6" fill="#2f9e63" opacity="0.85"/><circle cx="58.3" cy="158.5" r="1.6" fill="#2f9e63" opacity="0.85"/><circle cx="59.1" cy="172.0" r="1.6" fill="#2f9e63" opacity="0.85"/><circle cx="60.0" cy="157.0" r="1.6" fill="#2f9e63" opacity="0.85"/><circle cx="60.9" cy="137.5" r="1.6" fill="#2f9e63" opacity="0.85"/><circle cx="61.8" cy="116.5" r="1.6" fill="#2f9e63" opacity="0.85"/><circle cx="62.6" cy="97.0" r="1.6" fill="#2f9e63" opacity="0.85"/><circle cx="63.5" cy="76.0" r="1.6" fill="#2f9e63" opacity="0.85"/><circle cx="64.4" cy="56.5" r="1.6" fill="#2f9e63" opacity="0.85"/><circle cx="65.3" cy="37.0" r="1.6" fill="#2f9e63" opacity="0.85"/><circle cx="66.2" cy="40.0" r="1.6" fill="#2f9e63" opacity="0.85"/><circle cx="67.0" cy="59.5" r="1.6" fill="#2f9e63" opacity="0.85"/><circle cx="67.9" cy="79.0" r="1.6" fill="#2f9e63" opacity="0.85"/><circle cx="68.8" cy="100.0" r="1.6" fill="#2f9e63" opacity="0.85"/><circle cx="69.7" cy="119.5" r="1.6" fill="#2f9e63" opacity="0.85"/><circle cx="70.5" cy="140.5" r="1.6" fill="#2f9e63" opacity="0.85"/><circle cx="71.4" cy="160.0" r="1.6" fill="#2f9e63" opacity="0.85"/><circle cx="72.3" cy="172.0" r="1.6" fill="#2f9e63" opacity="0.85"/><circle cx="73.2" cy="155.5" r="1.6" fill="#2f9e63" opacity="0.85"/><circle cx="74.0" cy="136.0" r="1.6" fill="#2f9e63" opacity="0.85"/><circle cx="74.9" cy="116.5" r="1.6" fill="#2f9e63" opacity="0.85"/><circle cx="75.8" cy="95.5" r="1.6" fill="#2f9e63" opacity="0.85"/><circle cx="76.7" cy="76.0" r="1.6" fill="#2f9e63" opacity="0.85"/><circle cx="77.5" cy="55.0" r="1.6" fill="#2f9e63" opacity="0.85"/><circle cx="78.4" cy="37.0" r="1.6" fill="#2f9e63" opacity="0.85"/><circle cx="79.3" cy="40.0" r="1.6" fill="#2f9e63" opacity="0.85"/><circle cx="80.2" cy="61.0" r="1.6" fill="#2f9e63" opacity="0.85"/><circle cx="81.1" cy="80.5" r="1.6" fill="#2f9e63" opacity="0.85"/><circle cx="81.9" cy="100.0" r="1.6" fill="#2f9e63" opacity="0.85"/><circle cx="82.8" cy="121.0" r="1.6" fill="#2f9e63" opacity="0.85"/><circle cx="83.7" cy="140.5" r="1.6" fill="#2f9e63" opacity="0.85"/><circle cx="84.6" cy="161.5" r="1.6" fill="#2f9e63" opacity="0.85"/><circle cx="85.4" cy="172.0" r="1.6" fill="#2f9e63" opacity="0.85"/><circle cx="86.3" cy="155.5" r="1.6" fill="#2f9e63" opacity="0.85"/><circle cx="87.2" cy="134.5" r="1.6" fill="#2f9e63" opacity="0.85"/><circle cx="88.1" cy="115.0" r="1.6" fill="#2f9e63" opacity="0.85"/><circle cx="88.9" cy="94.0" r="1.6" fill="#2f9e63" opacity="0.85"/><circle cx="89.8" cy="74.5" r="1.6" fill="#2f9e63" opacity="0.85"/><circle cx="90.7" cy="55.0" r="1.6" fill="#2f9e63" opacity="0.85"/><circle cx="91.6" cy="37.0" r="1.6" fill="#2f9e63" opacity="0.85"/><circle cx="92.4" cy="41.5" r="1.6" fill="#2f9e63" opacity="0.85"/><circle cx="93.3" cy="61.0" r="1.6" fill="#2f9e63" opacity="0.85"/><circle cx="94.2" cy="82.0" r="1.6" fill="#2f9e63" opacity="0.85"/><circle cx="95.1" cy="101.5" r="1.6" fill="#2f9e63" opacity="0.85"/><circle cx="95.9" cy="122.5" r="1.6" fill="#2f9e63" opacity="0.85"/><circle cx="96.8" cy="142.0" r="1.6" fill="#2f9e63" opacity="0.85"/><circle cx="97.7" cy="161.5" r="1.6" fill="#2f9e63" opacity="0.85"/><circle cx="98.6" cy="170.5" r="1.6" fill="#2f9e63" opacity="0.85"/><circle cx="99.5" cy="154.0" r="1.6" fill="#2f9e63" opacity="0.85"/><circle cx="100.3" cy="134.5" r="1.6" fill="#2f9e63" opacity="0.85"/><circle cx="101.2" cy="113.5" r="1.6" fill="#2f9e63" opacity="0.85"/><circle cx="102.1" cy="94.0" r="1.6" fill="#2f9e63" opacity="0.85"/><circle cx="103.0" cy="73.0" r="1.6" fill="#2f9e63" opacity="0.85"/><circle cx="103.8" cy="53.5" r="1.6" fill="#2f9e63" opacity="0.85"/><circle cx="104.7" cy="35.5" r="1.6" fill="#2f9e63" opacity="0.85"/><circle cx="105.6" cy="43.0" r="1.6" fill="#2f9e63" opacity="0.85"/><circle cx="106.5" cy="62.5" r="1.6" fill="#2f9e63" opacity="0.85"/><circle cx="107.3" cy="82.0" r="1.6" fill="#2f9e63" opacity="0.85"/><circle cx="108.2" cy="103.0" r="1.6" fill="#2f9e63" opacity="0.85"/><circle cx="109.1" cy="122.5" r="1.6" fill="#2f9e63" opacity="0.85"/><circle cx="110.0" cy="143.5" r="1.6" fill="#2f9e63" opacity="0.85"/><circle cx="110.8" cy="163.0" r="1.6" fill="#2f9e63" opacity="0.85"/><circle cx="111.7" cy="170.5" r="1.6" fill="#2f9e63" opacity="0.85"/><circle cx="112.6" cy="152.5" r="1.6" fill="#2f9e63" opacity="0.85"/><circle cx="113.5" cy="133.0" r="1.6" fill="#2f9e63" opacity="0.85"/><circle cx="114.3" cy="113.5" r="1.6" fill="#2f9e63" opacity="0.85"/><circle cx="115.2" cy="92.5" r="1.6" fill="#2f9e63" opacity="0.85"/><circle cx="116.1" cy="73.0" r="1.6" fill="#2f9e63" opacity="0.85"/><circle cx="117.0" cy="52.0" r="1.6" fill="#2f9e63" opacity="0.85"/><circle cx="117.9" cy="35.5" r="1.6" fill="#2f9e63" opacity="0.85"/><circle cx="118.7" cy="43.0" r="1.6" fill="#2f9e63" opacity="0.85"/><circle cx="119.6" cy="64.0" r="1.6" fill="#2f9e63" opacity="0.85"/><circle cx="120.5" cy="83.5" r="1.6" fill="#2f9e63" opacity="0.85"/><circle cx="121.4" cy="104.5" r="1.6" fill="#2f9e63" opacity="0.85"/><circle cx="122.2" cy="124.0" r="1.6" fill="#2f9e63" opacity="0.85"/><circle cx="123.1" cy="143.5" r="1.6" fill="#2f9e63" opacity="0.85"/><circle cx="124.0" cy="164.5" r="1.6" fill="#2f9e63" opacity="0.85"/><circle cx="124.9" cy="170.5" r="1.6" fill="#2f9e63" opacity="0.85"/><circle cx="125.7" cy="152.5" r="1.6" fill="#2f9e63" opacity="0.85"/><circle cx="126.6" cy="131.5" r="1.6" fill="#2f9e63" opacity="0.85"/><circle cx="127.5" cy="112.0" r="1.6" fill="#2f9e63" opacity="0.85"/><circle cx="128.4" cy="91.0" r="1.6" fill="#2f9e63" opacity="0.85"/><circle cx="129.2" cy="71.5" r="1.6" fill="#2f9e63" opacity="0.85"/><circle cx="130.1" cy="52.0" r="1.6" fill="#2f9e63" opacity="0.85"/><circle cx="131.0" cy="35.5" r="1.6" fill="#2f9e63" opacity="0.85"/><circle cx="131.9" cy="44.5" r="1.6" fill="#2f9e63" opacity="0.85"/><circle cx="132.7" cy="64.0" r="1.6" fill="#2f9e63" opacity="0.85"/><circle cx="133.6" cy="85.0" r="1.6" fill="#2f9e63" opacity="0.85"/><circle cx="134.5" cy="104.5" r="1.6" fill="#2f9e63" opacity="0.85"/><circle cx="135.4" cy="125.5" r="1.6" fill="#2f9e63" opacity="0.85"/><circle cx="136.3" cy="145.0" r="1.6" fill="#2f9e63" opacity="0.85"/><circle cx="137.1" cy="164.5" r="1.6" fill="#2f9e63" opacity="0.85"/><circle cx="138.0" cy="169.0" r="1.6" fill="#2f9e63" opacity="0.85"/><circle cx="138.9" cy="151.0" r="1.6" fill="#2f9e63" opacity="0.85"/><circle cx="139.8" cy="131.5" r="1.6" fill="#2f9e63" opacity="0.85"/><circle cx="140.6" cy="110.5" r="1.6" fill="#2f9e63" opacity="0.85"/><circle cx="141.5" cy="91.0" r="1.6" fill="#2f9e63" opacity="0.85"/><circle cx="142.4" cy="70.0" r="1.6" fill="#2f9e63" opacity="0.85"/><circle cx="143.3" cy="50.5" r="1.6" fill="#2f9e63" opacity="0.85"/><circle cx="144.1" cy="34.0" r="1.6" fill="#2f9e63" opacity="0.85"/><circle cx="145.0" cy="46.0" r="1.6" fill="#2f9e63" opacity="0.85"/><circle cx="145.9" cy="65.5" r="1.6" fill="#2f9e63" opacity="0.85"/><circle cx="146.8" cy="85.0" r="1.6" fill="#2f9e63" opacity="0.85"/><circle cx="147.6" cy="106.0" r="1.6" fill="#2f9e63" opacity="0.85"/><circle cx="148.5" cy="125.5" r="1.6" fill="#2f9e63" opacity="0.85"/><circle cx="149.4" cy="146.5" r="1.6" fill="#2f9e63" opacity="0.85"/><circle cx="150.3" cy="166.0" r="1.6" fill="#2f9e63" opacity="0.85"/><circle cx="151.2" cy="169.0" r="1.6" fill="#2f9e63" opacity="0.85"/><circle cx="152.0" cy="149.5" r="1.6" fill="#2f9e63" opacity="0.85"/><circle cx="152.9" cy="130.0" r="1.6" fill="#2f9e63" opacity="0.85"/><circle cx="153.8" cy="110.5" r="1.6" fill="#2f9e63" opacity="0.85"/><circle cx="154.7" cy="89.5" r="1.6" fill="#2f9e63" opacity="0.85"/><circle cx="155.5" cy="70.0" r="1.6" fill="#2f9e63" opacity="0.85"/><circle cx="156.4" cy="49.0" r="1.6" fill="#2f9e63" opacity="0.85"/><circle cx="157.3" cy="34.0" r="1.6" fill="#2f9e63" opacity="0.85"/><circle cx="158.2" cy="46.0" r="1.6" fill="#2f9e63" opacity="0.85"/><circle cx="159.0" cy="67.0" r="1.6" fill="#2f9e63" opacity="0.85"/><circle cx="159.9" cy="86.5" r="1.6" fill="#2f9e63" opacity="0.85"/><circle cx="160.8" cy="107.5" r="1.6" fill="#2f9e63" opacity="0.85"/><circle cx="161.7" cy="127.0" r="1.6" fill="#2f9e63" opacity="0.85"/><circle cx="162.5" cy="146.5" r="1.6" fill="#2f9e63" opacity="0.85"/><circle cx="163.4" cy="167.5" r="1.6" fill="#2f9e63" opacity="0.85"/><circle cx="164.3" cy="169.0" r="1.6" fill="#2f9e63" opacity="0.85"/><circle cx="165.2" cy="149.5" r="1.6" fill="#2f9e63" opacity="0.85"/><circle cx="166.0" cy="128.5" r="1.6" fill="#2f9e63" opacity="0.85"/><circle cx="166.9" cy="109.0" r="1.6" fill="#2f9e63" opacity="0.85"/><circle cx="167.8" cy="88.0" r="1.6" fill="#2f9e63" opacity="0.85"/><circle cx="168.7" cy="68.5" r="1.6" fill="#2f9e63" opacity="0.85"/><circle cx="169.6" cy="49.0" r="1.6" fill="#2f9e63" opacity="0.85"/><circle cx="170.4" cy="34.0" r="1.6" fill="#2f9e63" opacity="0.85"/><circle cx="171.3" cy="47.5" r="1.6" fill="#2f9e63" opacity="0.85"/><circle cx="172.2" cy="67.0" r="1.6" fill="#2f9e63" opacity="0.85"/><circle cx="173.1" cy="88.0" r="1.6" fill="#2f9e63" opacity="0.85"/><circle cx="173.9" cy="107.5" r="1.6" fill="#2f9e63" opacity="0.85"/><circle cx="174.8" cy="128.5" r="1.6" fill="#2f9e63" opacity="0.85"/><circle cx="175.7" cy="148.0" r="1.6" fill="#2f9e63" opacity="0.85"/><circle cx="176.6" cy="167.5" r="1.6" fill="#2f9e63" opacity="0.85"/><circle cx="177.4" cy="167.5" r="1.6" fill="#2f9e63" opacity="0.85"/><circle cx="178.3" cy="148.0" r="1.6" fill="#2f9e63" opacity="0.85"/><circle cx="179.2" cy="128.5" r="1.6" fill="#2f9e63" opacity="0.85"/><circle cx="180.1" cy="107.5" r="1.6" fill="#2f9e63" opacity="0.85"/><circle cx="180.9" cy="88.0" r="1.6" fill="#2f9e63" opacity="0.85"/><circle cx="181.8" cy="67.0" r="1.6" fill="#2f9e63" opacity="0.85"/><circle cx="182.7" cy="47.5" r="1.6" fill="#2f9e63" opacity="0.85"/><circle cx="183.6" cy="34.0" r="1.6" fill="#2f9e63" opacity="0.85"/><circle cx="184.4" cy="49.0" r="1.6" fill="#2f9e63" opacity="0.85"/><circle cx="185.3" cy="68.5" r="1.6" fill="#2f9e63" opacity="0.85"/><circle cx="186.2" cy="88.0" r="1.6" fill="#2f9e63" opacity="0.85"/><circle cx="187.1" cy="109.0" r="1.6" fill="#2f9e63" opacity="0.85"/><circle cx="188.0" cy="128.5" r="1.6" fill="#2f9e63" opacity="0.85"/><circle cx="188.8" cy="149.5" r="1.6" fill="#2f9e63" opacity="0.85"/><circle cx="189.7" cy="169.0" r="1.6" fill="#2f9e63" opacity="0.85"/><circle cx="190.6" cy="167.5" r="1.6" fill="#2f9e63" opacity="0.85"/><circle cx="191.5" cy="146.5" r="1.6" fill="#2f9e63" opacity="0.85"/><circle cx="192.3" cy="127.0" r="1.6" fill="#2f9e63" opacity="0.85"/><circle cx="193.2" cy="107.5" r="1.6" fill="#2f9e63" opacity="0.85"/><circle cx="194.1" cy="86.5" r="1.6" fill="#2f9e63" opacity="0.85"/><circle cx="195.0" cy="67.0" r="1.6" fill="#2f9e63" opacity="0.85"/><circle cx="195.8" cy="46.0" r="1.6" fill="#2f9e63" opacity="0.85"/><circle cx="196.7" cy="34.0" r="1.6" fill="#2f9e63" opacity="0.85"/><circle cx="197.6" cy="49.0" r="1.6" fill="#2f9e63" opacity="0.85"/><circle cx="198.5" cy="70.0" r="1.6" fill="#2f9e63" opacity="0.85"/><circle cx="199.3" cy="89.5" r="1.6" fill="#2f9e63" opacity="0.85"/><circle cx="200.2" cy="110.5" r="1.6" fill="#2f9e63" opacity="0.85"/><circle cx="201.1" cy="130.0" r="1.6" fill="#2f9e63" opacity="0.85"/><circle cx="202.0" cy="149.5" r="1.6" fill="#2f9e63" opacity="0.85"/><circle cx="202.8" cy="169.0" r="1.6" fill="#2f9e63" opacity="0.85"/><circle cx="203.7" cy="166.0" r="1.6" fill="#2f9e63" opacity="0.85"/><circle cx="204.6" cy="146.5" r="1.6" fill="#2f9e63" opacity="0.85"/><circle cx="205.5" cy="125.5" r="1.6" fill="#2f9e63" opacity="0.85"/><circle cx="206.4" cy="106.0" r="1.6" fill="#2f9e63" opacity="0.85"/><circle cx="207.2" cy="85.0" r="1.6" fill="#2f9e63" opacity="0.85"/><circle cx="208.1" cy="65.5" r="1.6" fill="#2f9e63" opacity="0.85"/><circle cx="209.0" cy="46.0" r="1.6" fill="#2f9e63" opacity="0.85"/><circle cx="209.9" cy="34.0" r="1.6" fill="#2f9e63" opacity="0.85"/><circle cx="210.7" cy="50.5" r="1.6" fill="#2f9e63" opacity="0.85"/><circle cx="211.6" cy="70.0" r="1.6" fill="#2f9e63" opacity="0.85"/><circle cx="212.5" cy="91.0" r="1.6" fill="#2f9e63" opacity="0.85"/><circle cx="213.4" cy="110.5" r="1.6" fill="#2f9e63" opacity="0.85"/><circle cx="214.2" cy="131.5" r="1.6" fill="#2f9e63" opacity="0.85"/><circle cx="215.1" cy="151.0" r="1.6" fill="#2f9e63" opacity="0.85"/><circle cx="216.0" cy="169.0" r="1.6" fill="#2f9e63" opacity="0.85"/><circle cx="216.9" cy="164.5" r="1.6" fill="#2f9e63" opacity="0.85"/><circle cx="217.7" cy="145.0" r="1.6" fill="#2f9e63" opacity="0.85"/><circle cx="218.6" cy="125.5" r="1.6" fill="#2f9e63" opacity="0.85"/><circle cx="219.5" cy="104.5" r="1.6" fill="#2f9e63" opacity="0.85"/><circle cx="220.4" cy="85.0" r="1.6" fill="#2f9e63" opacity="0.85"/><circle cx="221.3" cy="64.0" r="1.6" fill="#2f9e63" opacity="0.85"/><circle cx="222.1" cy="44.5" r="1.6" fill="#2f9e63" opacity="0.85"/><circle cx="223.0" cy="35.5" r="1.6" fill="#2f9e63" opacity="0.85"/><circle cx="223.9" cy="52.0" r="1.6" fill="#2f9e63" opacity="0.85"/><circle cx="224.8" cy="71.5" r="1.6" fill="#2f9e63" opacity="0.85"/><circle cx="225.6" cy="91.0" r="1.6" fill="#2f9e63" opacity="0.85"/><circle cx="226.5" cy="112.0" r="1.6" fill="#2f9e63" opacity="0.85"/><circle cx="227.4" cy="131.5" r="1.6" fill="#2f9e63" opacity="0.85"/><circle cx="228.3" cy="152.5" r="1.6" fill="#2f9e63" opacity="0.85"/><circle cx="229.1" cy="170.5" r="1.6" fill="#2f9e63" opacity="0.85"/><circle cx="230.0" cy="164.5" r="1.6" fill="#2f9e63" opacity="0.85"/><circle cx="230.9" cy="143.5" r="1.6" fill="#2f9e63" opacity="0.85"/><circle cx="231.8" cy="124.0" r="1.6" fill="#2f9e63" opacity="0.85"/><circle cx="232.6" cy="104.5" r="1.6" fill="#2f9e63" opacity="0.85"/><circle cx="233.5" cy="83.5" r="1.6" fill="#2f9e63" opacity="0.85"/><circle cx="234.4" cy="64.0" r="1.6" fill="#2f9e63" opacity="0.85"/><circle cx="235.3" cy="43.0" r="1.6" fill="#2f9e63" opacity="0.85"/><circle cx="236.1" cy="35.5" r="1.6" fill="#2f9e63" opacity="0.85"/><circle cx="237.0" cy="52.0" r="1.6" fill="#2f9e63" opacity="0.85"/><circle cx="237.9" cy="73.0" r="1.6" fill="#2f9e63" opacity="0.85"/><circle cx="238.8" cy="92.5" r="1.6" fill="#2f9e63" opacity="0.85"/><circle cx="239.7" cy="113.5" r="1.6" fill="#2f9e63" opacity="0.85"/><circle cx="240.5" cy="133.0" r="1.6" fill="#2f9e63" opacity="0.85"/><circle cx="241.4" cy="152.5" r="1.6" fill="#2f9e63" opacity="0.85"/><circle cx="242.3" cy="170.5" r="1.6" fill="#2f9e63" opacity="0.85"/><circle cx="243.2" cy="163.0" r="1.6" fill="#2f9e63" opacity="0.85"/><circle cx="244.0" cy="143.5" r="1.6" fill="#2f9e63" opacity="0.85"/><circle cx="244.9" cy="122.5" r="1.6" fill="#2f9e63" opacity="0.85"/><circle cx="245.8" cy="103.0" r="1.6" fill="#2f9e63" opacity="0.85"/><circle cx="246.7" cy="82.0" r="1.6" fill="#2f9e63" opacity="0.85"/><circle cx="247.5" cy="62.5" r="1.6" fill="#2f9e63" opacity="0.85"/><circle cx="248.4" cy="43.0" r="1.6" fill="#2f9e63" opacity="0.85"/><circle cx="249.3" cy="35.5" r="1.6" fill="#2f9e63" opacity="0.85"/><circle cx="250.2" cy="53.5" r="1.6" fill="#2f9e63" opacity="0.85"/><circle cx="251.0" cy="73.0" r="1.6" fill="#2f9e63" opacity="0.85"/><circle cx="251.9" cy="94.0" r="1.6" fill="#2f9e63" opacity="0.85"/><circle cx="252.8" cy="113.5" r="1.6" fill="#2f9e63" opacity="0.85"/><circle cx="253.7" cy="134.5" r="1.6" fill="#2f9e63" opacity="0.85"/><circle cx="254.5" cy="154.0" r="1.6" fill="#2f9e63" opacity="0.85"/><circle cx="255.4" cy="170.5" r="1.6" fill="#2f9e63" opacity="0.85"/><circle cx="256.3" cy="161.5" r="1.6" fill="#2f9e63" opacity="0.85"/><circle cx="257.2" cy="142.0" r="1.6" fill="#2f9e63" opacity="0.85"/><circle cx="258.1" cy="122.5" r="1.6" fill="#2f9e63" opacity="0.85"/><circle cx="258.9" cy="101.5" r="1.6" fill="#2f9e63" opacity="0.85"/><circle cx="259.8" cy="82.0" r="1.6" fill="#2f9e63" opacity="0.85"/><circle cx="260.7" cy="61.0" r="1.6" fill="#2f9e63" opacity="0.85"/><circle cx="261.6" cy="41.5" r="1.6" fill="#2f9e63" opacity="0.85"/><circle cx="262.4" cy="37.0" r="1.6" fill="#2f9e63" opacity="0.85"/><circle cx="263.3" cy="55.0" r="1.6" fill="#2f9e63" opacity="0.85"/><circle cx="264.2" cy="74.5" r="1.6" fill="#2f9e63" opacity="0.85"/><circle cx="265.1" cy="94.0" r="1.6" fill="#2f9e63" opacity="0.85"/><circle cx="265.9" cy="115.0" r="1.6" fill="#2f9e63" opacity="0.85"/><circle cx="266.8" cy="134.5" r="1.6" fill="#2f9e63" opacity="0.85"/><circle cx="267.7" cy="155.5" r="1.6" fill="#2f9e63" opacity="0.85"/><circle cx="268.6" cy="172.0" r="1.6" fill="#2f9e63" opacity="0.85"/><circle cx="269.4" cy="161.5" r="1.6" fill="#2f9e63" opacity="0.85"/><circle cx="270.3" cy="140.5" r="1.6" fill="#2f9e63" opacity="0.85"/><circle cx="271.2" cy="121.0" r="1.6" fill="#2f9e63" opacity="0.85"/><circle cx="272.1" cy="100.0" r="1.6" fill="#2f9e63" opacity="0.85"/><circle cx="272.9" cy="80.5" r="1.6" fill="#2f9e63" opacity="0.85"/><circle cx="273.8" cy="61.0" r="1.6" fill="#2f9e63" opacity="0.85"/><circle cx="274.7" cy="40.0" r="1.6" fill="#2f9e63" opacity="0.85"/><circle cx="275.6" cy="37.0" r="1.6" fill="#2f9e63" opacity="0.85"/><circle cx="276.5" cy="55.0" r="1.6" fill="#2f9e63" opacity="0.85"/><circle cx="277.3" cy="76.0" r="1.6" fill="#2f9e63" opacity="0.85"/><circle cx="278.2" cy="95.5" r="1.6" fill="#2f9e63" opacity="0.85"/><circle cx="279.1" cy="116.5" r="1.6" fill="#2f9e63" opacity="0.85"/><circle cx="280.0" cy="136.0" r="1.6" fill="#2f9e63" opacity="0.85"/><circle cx="280.8" cy="155.5" r="1.6" fill="#2f9e63" opacity="0.85"/><circle cx="281.7" cy="172.0" r="1.6" fill="#2f9e63" opacity="0.85"/><circle cx="282.6" cy="160.0" r="1.6" fill="#2f9e63" opacity="0.85"/><circle cx="283.5" cy="140.5" r="1.6" fill="#2f9e63" opacity="0.85"/><circle cx="284.3" cy="119.5" r="1.6" fill="#2f9e63" opacity="0.85"/><circle cx="285.2" cy="100.0" r="1.6" fill="#2f9e63" opacity="0.85"/><circle cx="286.1" cy="79.0" r="1.6" fill="#2f9e63" opacity="0.85"/><circle cx="287.0" cy="59.5" r="1.6" fill="#2f9e63" opacity="0.85"/><circle cx="287.8" cy="40.0" r="1.6" fill="#2f9e63" opacity="0.85"/><circle cx="288.7" cy="37.0" r="1.6" fill="#2f9e63" opacity="0.85"/><circle cx="289.6" cy="56.5" r="1.6" fill="#2f9e63" opacity="0.85"/><circle cx="290.5" cy="76.0" r="1.6" fill="#2f9e63" opacity="0.85"/><circle cx="291.4" cy="97.0" r="1.6" fill="#2f9e63" opacity="0.85"/><circle cx="292.2" cy="116.5" r="1.6" fill="#2f9e63" opacity="0.85"/><circle cx="293.1" cy="137.5" r="1.6" fill="#2f9e63" opacity="0.85"/><circle cx="294.0" cy="157.0" r="1.6" fill="#2f9e63" opacity="0.85"/><circle cx="294.9" cy="172.0" r="1.6" fill="#2f9e63" opacity="0.85"/><circle cx="295.7" cy="158.5" r="1.6" fill="#2f9e63" opacity="0.85"/><circle cx="296.6" cy="139.0" r="1.6" fill="#2f9e63" opacity="0.85"/><circle cx="297.5" cy="119.5" r="1.6" fill="#2f9e63" opacity="0.85"/><circle cx="298.4" cy="98.5" r="1.6" fill="#2f9e63" opacity="0.85"/><circle cx="299.2" cy="79.0" r="1.6" fill="#2f9e63" opacity="0.85"/><circle cx="300.1" cy="58.0" r="1.6" fill="#2f9e63" opacity="0.85"/><circle cx="301.0" cy="38.5" r="1.6" fill="#2f9e63" opacity="0.85"/><circle cx="301.9" cy="38.5" r="1.6" fill="#2f9e63" opacity="0.85"/><circle cx="302.7" cy="58.0" r="1.6" fill="#2f9e63" opacity="0.85"/><circle cx="303.6" cy="77.5" r="1.6" fill="#2f9e63" opacity="0.85"/><circle cx="304.5" cy="97.0" r="1.6" fill="#2f9e63" opacity="0.85"/><circle cx="305.4" cy="118.0" r="1.6" fill="#2f9e63" opacity="0.85"/><circle cx="306.2" cy="137.5" r="1.6" fill="#2f9e63" opacity="0.85"/><circle cx="307.1" cy="158.5" r="1.6" fill="#2f9e63" opacity="0.85"/><circle cx="308.0" cy="178.0" r="1.6" fill="#2f9e63" opacity="0.85"/>
<circle cx="293.0" cy="43.0" r="9.5" fill="#3b82f6"/><text x="293.0" y="47.0" text-anchor="middle" font-size="12" font-weight="700" fill="#ffffff">A</text>
<line x1="366" y1="178.0" x2="628" y2="178.0" stroke="#94a3b8" stroke-width="1" opacity="0.55"/>
<line x1="366" y1="103.0" x2="628" y2="103.0" stroke="#94a3b8" stroke-width="1" opacity="0.22"/>
<line x1="366" y1="28.0" x2="628" y2="28.0" stroke="#94a3b8" stroke-width="1" opacity="0.22"/>
<line x1="366" y1="28" x2="366" y2="178" stroke="#94a3b8" stroke-width="1" opacity="0.55"/>
<polyline points="366.0,178.0 367.1,153.0 368.2,128.0 369.3,103.0 370.4,78.0 371.5,53.0 372.6,28.0 373.6,53.0 374.7,78.0 375.8,103.0 376.9,128.0 378.0,153.0 379.1,178.0 380.2,153.0 381.3,128.0 382.4,103.0 383.5,78.0 384.6,53.0 385.6,28.0 386.7,53.0 387.8,78.0 388.9,103.0 390.0,128.0 391.1,153.0 392.2,178.0 393.3,153.0 394.4,128.0 395.5,103.0 396.6,78.0 397.7,53.0 398.8,28.0 399.8,53.0 400.9,78.0 402.0,103.0 403.1,128.0 404.2,153.0 405.3,178.0 406.4,153.0 407.5,128.0 408.6,103.0 409.7,78.0 410.8,53.0 411.9,28.0 412.9,53.0 414.0,78.0 415.1,103.0 416.2,128.0 417.3,153.0 418.4,178.0 419.5,153.0 420.6,128.0 421.7,103.0 422.8,78.0 423.9,53.0 424.9,28.0 426.0,53.0 427.1,78.0 428.2,103.0 429.3,128.0 430.4,153.0 431.5,178.0 432.6,153.0 433.7,128.0 434.8,103.0 435.9,78.0 437.0,53.0 438.1,28.0 439.1,53.0 440.2,78.0 441.3,103.0 442.4,128.0 443.5,153.0 444.6,178.0 445.7,153.0 446.8,128.0 447.9,103.0 449.0,78.0 450.1,53.0 451.1,28.0 452.2,53.0 453.3,78.0 454.4,103.0 455.5,128.0 456.6,153.0 457.7,178.0 458.8,153.0 459.9,128.0 461.0,103.0 462.1,78.0 463.2,53.0 464.3,28.0 465.3,53.0 466.4,78.0 467.5,103.0 468.6,128.0 469.7,153.0 470.8,178.0 471.9,153.0 473.0,128.0 474.1,103.0 475.2,78.0 476.3,53.0 477.4,28.0 478.4,53.0 479.5,78.0 480.6,103.0 481.7,128.0 482.8,153.0 483.9,178.0 485.0,153.0 486.1,128.0 487.2,103.0 488.3,78.0 489.4,53.0 490.4,28.0 491.5,53.0 492.6,78.0 493.7,103.0 494.8,128.0 495.9,153.0 497.0,178.0 498.1,153.0 499.2,128.0 500.3,103.0 501.4,78.0 502.5,53.0 503.6,28.0 504.6,53.0 505.7,78.0 506.8,103.0 507.9,128.0 509.0,153.0 510.1,178.0 511.2,153.0 512.3,128.0 513.4,103.0 514.5,78.0 515.6,53.0 516.6,28.0 517.7,53.0 518.8,78.0 519.9,103.0 521.0,128.0 522.1,153.0 523.2,178.0 524.3,153.0 525.4,128.0 526.5,103.0 527.6,78.0 528.7,53.0 529.8,28.0 530.8,53.0 531.9,78.0 533.0,103.0 534.1,128.0 535.2,153.0 536.3,178.0 537.4,153.0 538.5,128.0 539.6,103.0 540.7,78.0 541.8,53.0 542.9,28.0 543.9,53.0 545.0,78.0 546.1,103.0 547.2,128.0 548.3,153.0 549.4,178.0 550.5,153.0 551.6,128.0 552.7,103.0 553.8,78.0 554.9,53.0 556.0,28.0 557.0,53.0 558.1,78.0 559.2,103.0 560.3,128.0 561.4,153.0 562.5,178.0 563.6,153.0 564.7,128.0 565.8,103.0 566.9,78.0 568.0,53.0 569.0,28.0 570.1,53.0 571.2,78.0 572.3,103.0 573.4,128.0 574.5,153.0 575.6,178.0 576.7,153.0 577.8,128.0 578.9,103.0 580.0,78.0 581.1,53.0 582.1,28.0 583.2,53.0 584.3,78.0 585.4,103.0 586.5,128.0 587.6,153.0 588.7,178.0 589.8,153.0 590.9,128.0 592.0,103.0 593.1,78.0 594.2,53.0 595.3,28.0 596.3,53.0 597.4,78.0 598.5,103.0 599.6,128.0 600.7,153.0 601.8,178.0 602.9,153.0 604.0,128.0 605.1,103.0 606.2,78.0 607.3,53.0 608.4,28.0 609.4,53.0 610.5,78.0 611.6,103.0 612.7,128.0 613.8,153.0 614.9,178.0 616.0,153.0 617.1,128.0 618.2,103.0 619.3,78.0 620.4,53.0 621.5,28.0 622.5,53.0 623.6,78.0 624.7,103.0 625.8,128.0 626.9,153.0 628.0,178.0" fill="none" stroke="#e0662b" stroke-width="1" stroke-linejoin="round"/>
<circle cx="366.0" cy="103.0" r="4" fill="#2f9e63" opacity="0.85"/><circle cx="418.4" cy="103.0" r="4" fill="#2f9e63" opacity="0.85"/><circle cx="470.8" cy="103.0" r="4" fill="#2f9e63" opacity="0.85"/><circle cx="523.2" cy="103.0" r="4" fill="#2f9e63" opacity="0.85"/><circle cx="575.6" cy="103.0" r="4" fill="#2f9e63" opacity="0.85"/><circle cx="628.0" cy="111.4" r="4" fill="#2f9e63" opacity="0.85"/>
<circle cx="613.0" cy="43.0" r="9.5" fill="#3b82f6"/><text x="613.0" y="47.0" text-anchor="middle" font-size="12" font-weight="700" fill="#ffffff">B</text>
</svg>
