<svg xmlns="http://www.w3.org/2000/svg" viewBox="0 0 680 398" width="680" height="398" font-family="system-ui, -apple-system, Segoe UI, Roboto, sans-serif">
<rect x="150" y="24" width="380" height="24" rx="5" fill="#3b82f6" opacity="0.25"/>
<circle cx="124.0" cy="36.0" r="9.5" fill="#3b82f6"/><text x="124.0" y="40.0" text-anchor="middle" font-size="12" font-weight="700" fill="#ffffff">A</text>
<text x="544.0" y="40.0" text-anchor="start" font-size="11.5" font-weight="400" fill="#94a3b8">before</text>
<rect x="150" y="60" width="380" height="24" rx="5" fill="#e0662b" opacity="0.3"/>
<circle cx="124.0" cy="72.0" r="9.5" fill="#3b82f6"/><text x="124.0" y="76.0" text-anchor="middle" font-size="12" font-weight="700" fill="#ffffff">B</text>
<text x="544.0" y="76.0" text-anchor="start" font-size="11.5" font-weight="400" fill="#94a3b8">before_block</text>
<rect x="150" y="90" width="380" height="24" rx="5" fill="#2f9e63" opacity="0.75"/>
<circle cx="124.0" cy="102.0" r="9.5" fill="#3b82f6"/><text x="124.0" y="106.0" text-anchor="middle" font-size="12" font-weight="700" fill="#ffffff">C</text>
<text x="544.0" y="106.0" text-anchor="start" font-size="11.5" font-weight="400" fill="#94a3b8">line</text>
<rect x="150" y="120" width="380" height="12" rx="5" fill="#b0b0b4" opacity="0.5"/>
<circle cx="124.0" cy="126.0" r="9.5" fill="#3b82f6"/><text x="124.0" y="130.0" text-anchor="middle" font-size="12" font-weight="700" fill="#ffffff">D</text>
<text x="544.0" y="130.0" text-anchor="start" font-size="11.5" font-weight="400" fill="#94a3b8">delimiter_line</text>
<rect x="150" y="138" width="380" height="24" rx="5" fill="#2f9e63" opacity="0.75"/>
<text x="544.0" y="154.0" text-anchor="start" font-size="11.5" font-weight="400" fill="#94a3b8">line</text>
<rect x="150" y="168" width="380" height="24" rx="5" fill="#e0662b" opacity="0.3"/>
<circle cx="124.0" cy="180.0" r="9.5" fill="#3b82f6"/><text x="124.0" y="184.0" text-anchor="middle" font-size="12" font-weight="700" fill="#ffffff">E</text>
<text x="544.0" y="184.0" text-anchor="start" font-size="11.5" font-weight="400" fill="#94a3b8">after_block</text>
<rect x="150" y="198" width="380" height="12" rx="5" fill="#3b82f6" opacity="0.45"/>
<circle cx="124.0" cy="204.0" r="9.5" fill="#3b82f6"/><text x="124.0" y="208.0" text-anchor="middle" font-size="12" font-weight="700" fill="#ffffff">F</text>
<text x="544.0" y="208.0" text-anchor="start" font-size="11.5" font-weight="400" fill="#94a3b8">delimiter_block</text>
<rect x="150" y="216" width="380" height="24" rx="5" fill="#e0662b" opacity="0.3"/>
<text x="544.0" y="232.0" text-anchor="start" font-size="11.5" font-weight="400" fill="#94a3b8">before_block</text>
<rect x="150" y="246" width="380" height="24" rx="5" fill="#2f9e63" opacity="0.75"/>
<text x="544.0" y="262.0" text-anchor="start" font-size="11.5" font-weight="400" fill="#94a3b8">line</text>
<rect x="150" y="276" width="380" height="12" rx="5" fill="#b0b0b4" opacity="0.5"/>
<text x="544.0" y="286.0" text-anchor="start" font-size="11.5" font-weight="400" fill="#94a3b8">delimiter_line</text>
<rect x="150" y="294" width="380" height="24" rx="5" fill="#2f9e63" opacity="0.75"/>
<text x="544.0" y="310.0" text-anchor="start" font-size="11.5" font-weight="400" fill="#94a3b8">line</text>
<rect x="150" y="324" width="380" height="24" rx="5" fill="#e0662b" opacity="0.3"/>
<text x="544.0" y="340.0" text-anchor="start" font-size="11.5" font-weight="400" fill="#94a3b8">after_block</text>
<rect x="150" y="360" width="380" height="24" rx="5" fill="#3b82f6" opacity="0.25"/>
<circle cx="124.0" cy="372.0" r="9.5" fill="#3b82f6"/><text x="124.0" y="376.0" text-anchor="middle" font-size="12" font-weight="700" fill="#ffffff">G</text>
<text x="544.0" y="376.0" text-anchor="start" font-size="11.5" font-weight="400" fill="#94a3b8">after</text>
<path d="M98 60 h -8 v 294 h 8" fill="none" stroke="#94a3b8" stroke-width="1.4" opacity="0.7"/>
<circle cx="72.0" cy="207.0" r="9.5" fill="#3b82f6"/><text x="72.0" y="211.0" text-anchor="middle" font-size="12" font-weight="700" fill="#ffffff">H</text>
</svg>
