<svg xmlns="http://www.w3.org/2000/svg" viewBox="0 0 680 188" width="680" height="188" font-family="system-ui, -apple-system, Segoe UI, Roboto, sans-serif">
<rect x="46" y="40" width="30" height="30" rx="6" fill="#e0662b" opacity="0.85"/><text x="61" y="60" text-anchor="middle" font-size="14" font-weight="700" fill="#fff">7</text><text x="61.0" y="88.0" text-anchor="middle" font-size="12" font-weight="700" fill="#3b82f6">5</text><rect x="80" y="40" width="30" height="30" rx="6" fill="#e0662b" opacity="0.85"/><text x="95" y="60" text-anchor="middle" font-size="14" font-weight="700" fill="#fff">7</text><text x="95.0" y="88.0" text-anchor="middle" font-size="12" font-weight="400" fill="#94a3b8">7</text><rect x="114" y="40" width="30" height="30" rx="6" fill="#e0662b" opacity="0.85"/><text x="129" y="60" text-anchor="middle" font-size="14" font-weight="700" fill="#fff">1</text><text x="129.0" y="88.0" text-anchor="middle" font-size="12" font-weight="700" fill="#3b82f6">2</text><rect x="148" y="40" width="30" height="30" rx="6" fill="#e0662b" opacity="0.85"/><text x="163" y="60" text-anchor="middle" font-size="14" font-weight="700" fill="#fff">5</text><text x="163.0" y="88.0" text-anchor="middle" font-size="12" font-weight="400" fill="#94a3b8">5</text><rect x="182" y="40" width="30" height="30" rx="6" fill="#e0662b" opacity="0.85"/><text x="197" y="60" text-anchor="middle" font-size="14" font-weight="700" fill="#fff">4</text><text x="197.0" y="88.0" text-anchor="middle" font-size="12" font-weight="700" fill="#3b82f6">8</text><rect x="216" y="40" width="30" height="30" rx="6" fill="#e0662b" opacity="0.85"/><text x="231" y="60" text-anchor="middle" font-size="14" font-weight="700" fill="#fff">2</text><text x="231.0" y="88.0" text-anchor="middle" font-size="12" font-weight="400" fill="#94a3b8">2</text><rect x="250" y="40" width="30" height="30" rx="6" fill="#e0662b" opacity="0.85"/><text x="265" y="60" text-anchor="middle" font-size="14" font-weight="700" fill="#fff">4</text><text x="265.0" y="88.0" text-anchor="middle" font-size="12" font-weight="700" fill="#3b82f6">8</text><rect x="284" y="40" width="30" height="30" rx="6" fill="#e0662b" opacity="0.85"/><text x="299" y="60" text-anchor="middle" font-size="14" font-weight="700" fill="#fff">6</text><text x="299.0" y="88.0" text-anchor="middle" font-size="12" font-weight="400" fill="#94a3b8">6</text><rect x="318" y="40" width="30" height="30" rx="6" fill="#e0662b" opacity="0.85"/><text x="333" y="60" text-anchor="middle" font-size="14" font-weight="700" fill="#fff">8</text><text x="333.0" y="88.0" text-anchor="middle" font-size="12" font-weight="700" fill="#3b82f6">7</text><rect x="352" y="40" width="30" height="30" rx="6" fill="#e0662b" opacity="0.85"/><text x="367" y="60" text-anchor="middle" font-size="14" font-weight="700" fill="#fff">1</text><text x="367.0" y="88.0" text-anchor="middle" font-size="12" font-weight="400" fill="#94a3b8">1</text><rect x="386" y="40" width="30" height="30" rx="6" fill="#e0662b" opacity="0.85"/><text x="401" y="60" text-anchor="middle" font-size="14" font-weight="700" fill="#fff">9</text><text x="401.0" y="88.0" text-anchor="middle" font-size="12" font-weight="700" fill="#3b82f6">9</text><rect x="420" y="40" width="30" height="30" rx="6" fill="#e0662b" opacity="0.85"/><text x="435" y="60" text-anchor="middle" font-size="14" font-weight="700" fill="#fff">6</text><text x="435.0" y="88.0" text-anchor="middle" font-size="12" font-weight="400" fill="#94a3b8">6</text><rect x="454" y="40" width="30" height="30" rx="6" fill="#e0662b" opacity="0.85"/><text x="469" y="60" text-anchor="middle" font-size="14" font-weight="700" fill="#fff">9</text><text x="469.0" y="88.0" text-anchor="middle" font-size="12" font-weight="700" fill="#3b82f6">9</text><rect x="488" y="40" width="30" height="30" rx="6" fill="#e0662b" opacity="0.85"/><text x="503" y="60" text-anchor="middle" font-size="14" font-weight="700" fill="#fff">2</text><text x="503.0" y="88.0" text-anchor="middle" font-size="12" font-weight="400" fill="#94a3b8">2</text><rect x="522" y="40" width="30" height="30" rx="6" fill="#e0662b" opacity="0.85"/><text x="537" y="60" text-anchor="middle" font-size="14" font-weight="700" fill="#fff">9</text><text x="537.0" y="88.0" text-anchor="middle" font-size="12" font-weight="700" fill="#3b82f6">9</text>
<rect x="556" y="40" width="30" height="30" rx="6" fill="#2f9e63"/><text x="571" y="60" text-anchor="middle" font-size="14" font-weight="700" fill="#fff">4</text>
<circle cx="24.0" cy="55.0" r="9.5" fill="#3b82f6"/><text x="24.0" y="59.0" text-anchor="middle" font-size="12" font-weight="700" fill="#ffffff">A</text>
<circle cx="608.0" cy="55.0" r="9.5" fill="#3b82f6"/><text x="608.0" y="59.0" text-anchor="middle" font-size="12" font-weight="700" fill="#ffffff">B</text>
<circle cx="24.0" cy="123.0" r="9.5" fill="#3b82f6"/><text x="24.0" y="127.0" text-anchor="middle" font-size="12" font-weight="700" fill="#ffffff">C</text>
<text x="46.0" y="128.0" text-anchor="start" font-size="12.5" font-weight="400" fill="#94a3b8">5 + 7 + 2 + 5 + 8 + 2 + 8 + 6 + 7 + 1 + 9 + 6 + 9 + 2 + 9 = 86</text><text x="46.0" y="150.0" text-anchor="start" font-size="12.5" font-weight="400" fill="#94a3b8">(10 − 86 mod 10) mod 10 = 4</text><text x="46.0" y="172.0" text-anchor="start" font-size="12.5" font-weight="700" fill="#2f9e63">(86 + 4) mod 10 = 0</text>
</svg>
