<svg xmlns="http://www.w3.org/2000/svg" viewBox="0 0 680 280" width="680" height="280" font-family="system-ui, -apple-system, Segoe UI, Roboto, sans-serif" role="img" aria-label="peak memory with uniq, two hundred thousand rows, megabytes"><circle cx="34" cy="53" r="9.5" fill="#6b7280"/><text x="34" y="57" text-anchor="middle" font-size="12" font-weight="700" fill="#ffffff">A</text><rect x="72" y="34" width="289.4" height="14" rx="3" fill="#b0b0b4" opacity="0.55"/><text x="368.4" y="45" font-size="11.5" font-weight="600" fill="#b0b0b4">216</text><rect x="72" y="51" width="215.2" height="14" rx="3" fill="#2f9e63" opacity="0.9"/><text x="294.2" y="62" font-size="11.5" font-weight="600" fill="#2f9e63">138</text><circle cx="34" cy="99" r="9.5" fill="#6b7280"/><text x="34" y="103" text-anchor="middle" font-size="12" font-weight="700" fill="#ffffff">B</text><rect x="72" y="80" width="506.7" height="14" rx="3" fill="#b0b0b4" opacity="0.55"/><text x="585.7" y="91" font-size="11.5" font-weight="600" fill="#b0b0b4">793</text><rect x="72" y="97" width="470.2" height="14" rx="3" fill="#2f9e63" opacity="0.9"/><text x="549.2" y="108" font-size="11.5" font-weight="600" fill="#2f9e63">637</text><circle cx="34" cy="145" r="9.5" fill="#6b7280"/><text x="34" y="149" text-anchor="middle" font-size="12" font-weight="700" fill="#ffffff">C</text><rect x="72" y="126" width="323.5" height="14" rx="3" fill="#b0b0b4" opacity="0.55"/><text x="402.5" y="137" font-size="11.5" font-weight="600" fill="#b0b0b4">264</text><rect x="72" y="143" width="280.2" height="14" rx="3" fill="#2f9e63" opacity="0.9"/><text x="359.2" y="154" font-size="11.5" font-weight="600" fill="#2f9e63">204</text><circle cx="34" cy="191" r="9.5" fill="#6b7280"/><text x="34" y="195" text-anchor="middle" font-size="12" font-weight="700" fill="#ffffff">D</text><rect x="72" y="172" width="266.6" height="14" rx="3" fill="#b0b0b4" opacity="0.55"/><text x="345.6" y="183" font-size="11.5" font-weight="600" fill="#b0b0b4">188</text><rect x="72" y="189" width="181.9" height="14" rx="3" fill="#2f9e63" opacity="0.9"/><text x="260.9" y="200" font-size="11.5" font-weight="600" fill="#2f9e63">113</text><circle cx="34" cy="237" r="9.5" fill="#6b7280"/><text x="34" y="241" text-anchor="middle" font-size="12" font-weight="700" fill="#ffffff">E</text><rect x="72" y="218" width="284.5" height="14" rx="3" fill="#b0b0b4" opacity="0.55"/><text x="363.5" y="229" font-size="11.5" font-weight="600" fill="#b0b0b4">209</text><rect x="72" y="235" width="115.6" height="14" rx="3" fill="#2f9e63" opacity="0.9"/><text x="194.6" y="246" font-size="11.5" font-weight="600" fill="#2f9e63">76</text></svg>
