<svg xmlns="http://www.w3.org/2000/svg" viewBox="0 0 680 220" width="680" height="220" font-family="system-ui, -apple-system, Segoe UI, Roboto, sans-serif">
<rect x="30.6" y="70.3" width="10.3" height="95.7" fill="#b0b0b4" opacity="0.75"/><rect x="42.1" y="68.2" width="10.3" height="97.8" fill="#b0b0b4" opacity="0.75"/><rect x="53.7" y="65.9" width="10.3" height="100.1" fill="#b0b0b4" opacity="0.75"/><rect x="65.2" y="62.5" width="10.3" height="103.5" fill="#b0b0b4" opacity="0.75"/><rect x="76.8" y="62.3" width="10.3" height="103.7" fill="#b0b0b4" opacity="0.75"/><rect x="88.3" y="66.9" width="10.3" height="99.1" fill="#b0b0b4" opacity="0.75"/><rect x="99.8" y="59.6" width="10.3" height="106.4" fill="#b0b0b4" opacity="0.75"/><rect x="111.4" y="67.7" width="10.3" height="98.3" fill="#b0b0b4" opacity="0.75"/><rect x="122.9" y="67.3" width="10.3" height="98.7" fill="#b0b0b4" opacity="0.75"/><rect x="134.4" y="66.9" width="10.3" height="99.1" fill="#b0b0b4" opacity="0.75"/><rect x="146.0" y="65.8" width="10.3" height="100.2" fill="#b0b0b4" opacity="0.75"/><rect x="157.5" y="68.0" width="10.3" height="98.0" fill="#b0b0b4" opacity="0.75"/><rect x="169.1" y="70.0" width="10.3" height="96.0" fill="#b0b0b4" opacity="0.75"/><rect x="180.6" y="67.8" width="10.3" height="98.2" fill="#b0b0b4" opacity="0.75"/><rect x="192.1" y="16.0" width="10.3" height="150.0" fill="#b0b0b4" opacity="0.75"/><rect x="203.7" y="117.0" width="10.3" height="49.0" fill="#b0b0b4" opacity="0.75"/><rect x="215.2" y="65.4" width="10.3" height="100.6" fill="#b0b0b4" opacity="0.75"/><rect x="226.8" y="61.3" width="10.3" height="104.7" fill="#b0b0b4" opacity="0.75"/><rect x="238.3" y="68.0" width="10.3" height="98.0" fill="#b0b0b4" opacity="0.75"/><rect x="249.8" y="68.5" width="10.3" height="97.5" fill="#b0b0b4" opacity="0.75"/><rect x="261.4" y="62.6" width="10.3" height="103.4" fill="#b0b0b4" opacity="0.75"/><rect x="272.9" y="58.4" width="10.3" height="107.6" fill="#b0b0b4" opacity="0.75"/><rect x="284.4" y="67.2" width="10.3" height="98.8" fill="#b0b0b4" opacity="0.75"/><rect x="296.0" y="62.2" width="10.3" height="103.8" fill="#b0b0b4" opacity="0.75"/><rect x="307.5" y="63.4" width="10.3" height="102.6" fill="#b0b0b4" opacity="0.75"/><rect x="319.1" y="117.1" width="10.3" height="48.9" fill="#b0b0b4" opacity="0.75"/>
<line x1="30" y1="166" x2="330" y2="166" stroke="#94a3b8" stroke-width="1" opacity="0.55"/>
<line x1="30.0" y1="166" x2="30.0" y2="170" stroke="#94a3b8" opacity="0.55"/>
<text x="30.0" y="182.0" text-anchor="start" font-size="10.5" font-weight="400" fill="#94a3b8">150</text>
<line x1="105.0" y1="166" x2="105.0" y2="170" stroke="#94a3b8" opacity="0.55"/>
<text x="105.0" y="182.0" text-anchor="middle" font-size="10.5" font-weight="400" fill="#94a3b8">163</text>
<line x1="180.0" y1="166" x2="180.0" y2="170" stroke="#94a3b8" opacity="0.55"/>
<text x="180.0" y="182.0" text-anchor="middle" font-size="10.5" font-weight="400" fill="#94a3b8">175</text>
<line x1="255.0" y1="166" x2="255.0" y2="170" stroke="#94a3b8" opacity="0.55"/>
<text x="255.0" y="182.0" text-anchor="middle" font-size="10.5" font-weight="400" fill="#94a3b8">188</text>
<line x1="330.0" y1="166" x2="330.0" y2="170" stroke="#94a3b8" opacity="0.55"/>
<text x="330.0" y="182.0" text-anchor="end" font-size="10.5" font-weight="400" fill="#94a3b8">200</text>
<text x="180.0" y="200.0" text-anchor="middle" font-size="11.5" font-weight="400" fill="#94a3b8">value="150..200"</text>
<rect x="360.6" y="165.9" width="9.9" height="0.1" fill="#2f9e63" opacity="0.75"/><rect x="371.7" y="165.9" width="9.9" height="0.1" fill="#2f9e63" opacity="0.75"/><rect x="382.8" y="165.7" width="9.9" height="0.3" fill="#2f9e63" opacity="0.75"/><rect x="393.9" y="165.5" width="9.9" height="0.5" fill="#2f9e63" opacity="0.75"/><rect x="405.0" y="164.9" width="9.9" height="1.1" fill="#2f9e63" opacity="0.75"/><rect x="416.2" y="163.5" width="9.9" height="2.5" fill="#2f9e63" opacity="0.75"/><rect x="427.3" y="160.4" width="9.9" height="5.6" fill="#2f9e63" opacity="0.75"/><rect x="438.4" y="157.5" width="9.9" height="8.5" fill="#2f9e63" opacity="0.75"/><rect x="449.5" y="149.4" width="9.9" height="16.6" fill="#2f9e63" opacity="0.75"/><rect x="460.6" y="138.0" width="9.9" height="28.0" fill="#2f9e63" opacity="0.75"/><rect x="471.7" y="121.5" width="9.9" height="44.5" fill="#2f9e63" opacity="0.75"/><rect x="482.8" y="104.6" width="9.9" height="61.4" fill="#2f9e63" opacity="0.75"/><rect x="493.9" y="87.9" width="9.9" height="78.1" fill="#2f9e63" opacity="0.75"/><rect x="505.0" y="63.5" width="9.9" height="102.5" fill="#2f9e63" opacity="0.75"/><rect x="516.2" y="43.2" width="9.9" height="122.8" fill="#2f9e63" opacity="0.75"/><rect x="527.3" y="27.3" width="9.9" height="138.7" fill="#2f9e63" opacity="0.75"/><rect x="538.4" y="16.0" width="9.9" height="150.0" fill="#2f9e63" opacity="0.75"/><rect x="549.5" y="30.6" width="9.9" height="135.4" fill="#2f9e63" opacity="0.75"/><rect x="560.6" y="31.7" width="9.9" height="134.3" fill="#2f9e63" opacity="0.75"/><rect x="571.7" y="50.0" width="9.9" height="116.0" fill="#2f9e63" opacity="0.75"/><rect x="582.8" y="67.7" width="9.9" height="98.3" fill="#2f9e63" opacity="0.75"/><rect x="593.9" y="97.0" width="9.9" height="69.0" fill="#2f9e63" opacity="0.75"/><rect x="605.0" y="114.3" width="9.9" height="51.7" fill="#2f9e63" opacity="0.75"/><rect x="616.2" y="132.0" width="9.9" height="34.0" fill="#2f9e63" opacity="0.75"/><rect x="627.3" y="143.1" width="9.9" height="22.9" fill="#2f9e63" opacity="0.75"/><rect x="638.4" y="153.0" width="9.9" height="13.0" fill="#2f9e63" opacity="0.75"/><rect x="649.5" y="161.3" width="9.9" height="4.7" fill="#2f9e63" opacity="0.75"/>
<line x1="360" y1="166" x2="660" y2="166" stroke="#94a3b8" stroke-width="1" opacity="0.55"/>
<line x1="360.0" y1="166" x2="360.0" y2="170" stroke="#94a3b8" opacity="0.55"/>
<text x="360.0" y="182.0" text-anchor="start" font-size="10.5" font-weight="400" fill="#94a3b8">142</text>
<line x1="435.0" y1="166" x2="435.0" y2="170" stroke="#94a3b8" opacity="0.55"/>
<text x="435.0" y="182.0" text-anchor="middle" font-size="10.5" font-weight="400" fill="#94a3b8">155</text>
<line x1="510.0" y1="166" x2="510.0" y2="170" stroke="#94a3b8" opacity="0.55"/>
<text x="510.0" y="182.0" text-anchor="middle" font-size="10.5" font-weight="400" fill="#94a3b8">168</text>
<line x1="585.0" y1="166" x2="585.0" y2="170" stroke="#94a3b8" opacity="0.55"/>
<text x="585.0" y="182.0" text-anchor="middle" font-size="10.5" font-weight="400" fill="#94a3b8">181</text>
<line x1="660.0" y1="166" x2="660.0" y2="170" stroke="#94a3b8" opacity="0.55"/>
<text x="660.0" y="182.0" text-anchor="end" font-size="10.5" font-weight="400" fill="#94a3b8">194</text>
<text x="510.0" y="200.0" text-anchor="middle" font-size="11.5" font-weight="400" fill="#94a3b8">distribution="normal"</text>
</svg>
